<?xml version="1.0" encoding="UTF-8" standalone="no"?>
<!-- Generator: Adobe Illustrator 25.4.1, SVG Export Plug-In . SVG Version: 6.00 Build 0)  -->

<svg
   version="1.1"
   id="Layer_1"
   x="0px"
   y="0px"
   viewBox="0 0 422.69999 55.5"
   xml:space="preserve"
   sodipodi:docname="header.svg"
   width="422.70001"
   height="55.5"
   inkscape:version="1.3 (0e150ed6c4, 2023-07-21)"
   xmlns:inkscape="http://www.inkscape.org/namespaces/inkscape"
   xmlns:sodipodi="http://sodipodi.sourceforge.net/DTD/sodipodi-0.dtd"
   xmlns="http://www.w3.org/2000/svg"
   xmlns:svg="http://www.w3.org/2000/svg"
   xmlns:ns="&amp;ns_sfw;"><defs
   id="defs23" /><sodipodi:namedview
   id="namedview23"
   pagecolor="#ffffff"
   bordercolor="#666666"
   borderopacity="1.0"
   inkscape:showpageshadow="2"
   inkscape:pageopacity="0.0"
   inkscape:pagecheckerboard="0"
   inkscape:deskcolor="#d1d1d1"
   inkscape:zoom="3.1187157"
   inkscape:cx="210.02235"
   inkscape:cy="27.094486"
   inkscape:window-width="1920"
   inkscape:window-height="1171"
   inkscape:window-x="0"
   inkscape:window-y="0"
   inkscape:window-maximized="1"
   inkscape:current-layer="Layer_1" />&#10;<style
   type="text/css"
   id="style1">&#10;	.st0{fill:#006666;}&#10;	.st1{fill:#00CCCC;}&#10;	.st2{fill:#9D9D9C;}&#10;</style>&#10;<metadata
   id="metadata1">&#10;	<ns:sfw>&#10;		<ns:slices />&#10;		<ns:sliceSourceBounds
   bottomLeftOrigin="true"
   height="55.4"
   width="422.7"
   x="73.4"
   y="-170" />&#10;	</ns:sfw>&#10;</metadata>&#10;&#10;&#10;&#10;<g
   id="g24"
   transform="translate(-73.4,-114.7)"><path
     class="st0"
     d="m 81,130.1 h -7.6 v 14.8 c 0,2.4 0,3.7 0.7,4.7 0.9,1.2 2.9,1.1 3.1,1.1 3.7,0 3.7,-2.6 3.7,-4 0,-0.6 0,-1.2 0,-1.8 v -8.3 h 8 c 1.7,0 2.8,0 3.5,-0.3 0.8,-0.3 1.5,-1.1 1.5,-2.9 0,-3.5 -2.4,-3.3 -4.9,-3.3 z m 14.7,-11.4 c 0,-2.3 -0.9,-3.3 -3.2,-3.4 -0.6,0 -1.2,0 -1.8,0 H 77.3 c -1.5,0 -3.4,-0.1 -3.8,1.8 -0.1,0.5 -0.1,1 -0.1,2.1 v 2.6 0.2 h 17.3 c 1.7,0 2.5,0 3.3,-0.2 1.8,-0.8 1.7,-2.6 1.7,-3.1 m 35.1,29 c 0,-0.9 -0.3,-1.9 -0.8,-3.8 l -7.5,-24.5 c -0.5,-1.8 -1.2,-3.9 -3.3,-4.5 -0.5,-0.2 -1.1,-0.2 -1.7,-0.2 -1.2,0 -2.6,0.1 -3.6,0.8 -1.3,0.9 -1.8,2.5 -2.2,3.9 l -8.2,25 c -0.5,1.8 -0.7,2.7 -0.7,3.6 0,2.2 1.7,2.8 3.6,2.8 2.8,0 3.3,-1.5 4,-3.8 l 1.3,-4.6 h 6.6 l -1.7,-6 h -3.1 l 2.4,-8 c 0.3,-1.2 0.7,-2.3 1,-3.5 0.2,1.1 0.6,2.3 0.9,3.5 l 0.6,2.1 v 0 l 5.2,18.5 c 0.3,0.7 0.7,1.1 1.3,1.5 0.5,0.3 1.1,0.5 2.3,0.5 2.9,-0.3 3.6,-1.8 3.6,-3.3 m 19.4,-27.2 c 0,-1.8 0.2,-4.2 -1.3,-5.2 -0.4,-0.2 -1.2,-0.6 -2.4,-0.6 -1.5,0 -2.4,0.5 -2.9,1 -1.1,1.1 -1,3.5 -0.9,4.8 v 24.3 c 0,1.3 0,2.5 0.1,3 0.1,1.2 0.8,2.9 3.7,2.9 3.4,0 3.7,-2.4 3.8,-3.7 v -26.5 z m 37.3,13.3 c 1.3,-1.2 3.3,-3.9 3.3,-8.3 0,-3.2 -1,-5.2 -1.7,-6.3 -2,-3 -5,-3.5 -6.2,-3.7 -1.8,-0.2 -5,-0.2 -5.1,-0.2 h -8.3 c -1.7,0 -2.6,0 -3.3,0.6 -0.6,0.6 -0.6,1.5 -0.6,3.2 v 25.7 c 0,2.2 0,3.2 0.4,4.2 0.9,1.7 2.8,1.6 3.4,1.6 2.5,0 3.7,-1.2 3.8,-3.7 0,-0.7 0,-1.4 0,-2.1 v -7.6 0 -8 0 -7.5 h 4.3 c 1.7,0 3.8,-0.1 4.9,1.6 0.7,1 0.7,2.3 0.7,2.7 0,1.4 -0.4,2.2 -0.7,2.7 -1.1,1.6 -3,1.6 -4.6,1.6 h -3.4 l 3.2,6.4 h 0.1 l 5,10.1 c 1.1,2.2 1.9,3.8 4.6,3.8 1.8,0 2.8,-0.4 3.3,-1.2 0.3,-0.5 0.4,-1.1 0.4,-1.3 0,-1.3 -0.6,-2.3 -1.8,-4.5 l -4.4,-8.1 c 0.5,-0.3 1.5,-0.7 2.7,-1.7"
     id="path1" /><path
     class="st0"
     d="m 384.2,133.8 c 0,4 -0.4,6.2 -1.4,7.8 -1.5,2.2 -3.9,2.4 -6.3,2.5 h -4.7 V 122 h 3.8 c 1.9,0 3.7,0 5.3,1.1 1.7,1.2 2.2,3 2.4,3.7 1,2.8 0.9,6.3 0.9,7 m 7.6,3.6 c 0.1,-1.1 0.1,-2.3 0.1,-3.5 0,-5.8 -0.7,-9.4 -1.8,-11.9 -2.6,-5.7 -7.9,-6.2 -10,-6.4 -0.9,0 -1.9,-0.1 -2.9,-0.1 h -9.1 c -1.4,0 -3.3,-0.2 -3.8,1.6 -0.1,0.4 -0.1,1.2 -0.1,2.2 v 26.9 c 0,2.2 -0.1,3.5 1.2,4 0.6,0.2 1.6,0.1 3,0.2 h 7.7 c 3,0 6.5,-0.1 9.3,-1.4 5.8,-2.6 6.3,-10.3 6.4,-11.6 m 38.8,10.3 c 0,-0.9 -0.3,-1.9 -0.8,-3.8 l -7.5,-24.5 c -0.5,-1.8 -1.2,-3.9 -3.3,-4.5 -0.5,-0.2 -1.1,-0.2 -1.7,-0.2 -1.2,0 -2.6,0.1 -3.6,0.8 -1.3,0.9 -1.8,2.5 -2.2,3.9 l -8.2,25 c -0.5,1.8 -0.7,2.7 -0.7,3.6 0,2.2 1.7,2.8 3.6,2.8 2.8,0 3.3,-1.5 4,-3.8 l 1.3,-4.6 h 6.6 l -1.7,-6 h -3.1 l 2.4,-8 c 0.3,-1.2 0.7,-2.3 1,-3.5 0.2,1.1 0.6,2.3 0.9,3.5 l 0.6,2.1 v 0 l 5.2,18.5 c 0.3,0.7 0.7,1.1 1.3,1.5 0.5,0.3 1.1,0.5 2.3,0.5 2.9,-0.3 3.6,-1.8 3.6,-3.3 m 31.1,-27.1 c 0.6,-0.8 0.6,-1.8 0.6,-2.1 0,-3.3 -2.4,-3.2 -3.6,-3.2 h -17.3 c -2.5,0 -4.9,0 -4.9,3.3 0,3.2 2.5,3.2 4.9,3.2 h 4.2 V 145 c 0,3.1 -0.1,5.8 3.9,5.8 1,0 1.7,-0.2 2,-0.4 1.7,-0.8 1.7,-2.3 1.7,-5.4 v -23.2 h 4.1 c 2.4,-0.1 3.6,-0.1 4.4,-1.2 m 34.4,27.1 c 0,-0.9 -0.3,-1.9 -0.8,-3.8 l -7.5,-24.5 c -0.5,-1.8 -1.2,-3.9 -3.3,-4.5 -0.5,-0.2 -1.1,-0.2 -1.7,-0.2 -1.2,0 -2.6,0.1 -3.6,0.8 -1.3,0.9 -1.8,2.5 -2.2,3.9 l -8.2,25 c -0.5,1.8 -0.7,2.7 -0.7,3.6 0,2.2 1.7,2.8 3.6,2.8 2.8,0 3.3,-1.5 4,-3.8 l 1.3,-4.6 h 6.6 l -1.7,-6 h -3.1 l 2.4,-8 c 0.3,-1.2 0.7,-2.3 1,-3.5 0.2,1.1 0.6,2.3 0.9,3.5 l 0.6,2.1 v 0 l 5.2,18.5 c 0.3,0.7 0.7,1.1 1.3,1.5 0.5,0.3 1.1,0.5 2.3,0.5 2.8,-0.3 3.6,-1.8 3.6,-3.3"
     id="path2" /><path
     class="st1"
     d="m 212.1,130.1 h -7.6 v 14.8 c 0,2.4 0,3.7 0.7,4.7 0.9,1.2 2.9,1.1 3.1,1.1 3.7,0 3.7,-2.6 3.7,-4 0,-0.6 0,-1.2 0,-1.8 v -8.3 h 8 c 1.7,0 2.8,0 3.5,-0.3 0.8,-0.3 1.5,-1.1 1.5,-2.9 0,-3.5 -2.4,-3.3 -4.9,-3.3 z m 14.7,-11.4 c 0,-2.3 -0.9,-3.3 -3.2,-3.4 -0.6,0 -1.2,0 -1.8,0 h -13.4 c -1.5,0 -3.4,-0.1 -3.8,1.8 -0.1,0.5 -0.1,1 -0.1,2.1 v 2.6 0.2 h 17.3 c 1.7,0 2.5,0 3.3,-0.2 1.8,-0.8 1.7,-2.6 1.7,-3.1 m 32.8,14 c 0,2.7 0,6.5 -1.6,8.8 -1.2,1.8 -3,2.6 -5.1,2.6 -6,0 -6.7,-5.5 -6.9,-7.2 -0.1,-1.1 -0.1,-2.3 -0.1,-3.5 0,-4.2 0,-9.6 3.8,-11.5 1.3,-0.7 2.7,-0.7 3.2,-0.7 5.3,0 6.2,4.7 6.4,6.2 0.2,1.4 0.3,2.6 0.3,5.3 m 6.9,7.7 c 0.8,-3.2 0.8,-6.7 0.8,-7.7 0,-6.5 -1.1,-10.4 -2.7,-12.8 -1,-1.5 -2.2,-2.4 -2.8,-2.8 -3.3,-2.4 -7.3,-2.4 -8.6,-2.4 -1.8,0 -7.4,0 -11.2,4.5 -3.2,3.8 -3.8,9.2 -3.8,14 0,6.2 1.1,13.2 7.5,16.2 2.9,1.4 5.9,1.4 7,1.4 3.1,0 5.9,-0.5 8.5,-2.2 3.9,-2.6 5,-6.6 5.3,-8.2 m 35.2,-7.7 c 0,2.7 0,6.5 -1.6,8.8 -1.2,1.8 -3,2.6 -5.1,2.6 -6,0 -6.7,-5.5 -6.9,-7.2 -0.1,-1.1 -0.1,-2.3 -0.1,-3.5 0,-4.2 0,-9.6 3.8,-11.5 1.3,-0.7 2.7,-0.7 3.2,-0.7 5.3,0 6.2,4.7 6.4,6.2 0.2,1.4 0.3,2.6 0.3,5.3 m 6.9,7.7 c 0.8,-3.2 0.8,-6.7 0.8,-7.7 0,-6.5 -1.1,-10.4 -2.7,-12.8 -1,-1.5 -2.2,-2.4 -2.8,-2.8 -3.3,-2.4 -7.3,-2.4 -8.6,-2.4 -1.8,0 -7.4,0 -11.2,4.5 -3.2,3.8 -3.8,9.2 -3.8,14 0,6.2 1.1,13.2 7.5,16.2 2.9,1.4 5.9,1.4 7,1.4 3.1,0 5.9,-0.5 8.5,-2.2 3.9,-2.6 4.9,-6.6 5.3,-8.2 m 34.3,-6.6 c 0,4 -0.4,6.2 -1.4,7.8 -1.5,2.2 -3.9,2.4 -6.3,2.5 h -4.7 V 122 h 3.8 c 1.9,0 3.7,0 5.3,1.1 1.7,1.2 2.2,3 2.4,3.7 1,2.8 0.9,6.3 0.9,7 m 7.8,0.1 c 0,-5.8 -0.7,-9.4 -1.8,-11.9 -2.6,-5.7 -7.9,-6.2 -10,-6.4 -0.9,0 -1.9,-0.1 -2.9,-0.1 h -9.1 c -1.4,0 -3.3,-0.2 -3.8,1.6 -0.1,0.4 -0.1,1.2 -0.1,2.2 v 26.9 c 0,2.2 -0.1,3.5 1.2,4 0.6,0.2 1.6,0.1 3,0.2 h 7.7 c 3,0 6.5,-0.1 9.3,-1.4 5.9,-2.7 6.4,-10.4 6.5,-11.7 0,-1 0,-2.2 0,-3.4"
     id="path3" /><g
     id="g23">&#10;	<path
   class="st2"
   d="m 76.8,169 c 0,0.4 -0.1,1.1 -1.1,1.1 -0.8,0 -1,-0.5 -1.1,-0.8 0,-0.1 0,-0.5 0,-0.9 v -7 c 0,-0.4 0,-1.1 0.3,-1.4 0.1,-0.1 0.4,-0.3 0.8,-0.3 0.3,0 0.6,0.1 0.7,0.2 0.4,0.3 0.4,1 0.4,1.5 z"
   id="path4" />&#10;	<path
   class="st2"
   d="m 92.7,168.9 c 0,0.3 0,1.1 -1,1.1 -1.1,0 -1,-0.8 -1,-1.6 v -6.9 c 0,-0.9 0.1,-1.2 0.5,-1.6 0.2,-0.2 0.5,-0.3 1.1,-0.3 0.1,0 0.4,0 0.7,0.2 0.4,0.2 0.6,0.6 1,1.4 l 1.5,3.4 c 0.2,0.4 0.3,0.7 0.5,1.1 0.1,0.3 0.3,0.7 0.4,1 0,-0.8 -0.1,-1.6 -0.1,-2.4 v -3.6 c 0,-0.4 0.1,-0.8 0.5,-1 0.1,0 0.2,-0.1 0.5,-0.1 0.1,0 0.5,0 0.7,0.3 0.2,0.3 0.2,0.6 0.2,1.3 v 7.1 c 0,0.4 0,0.9 -0.2,1.2 -0.3,0.4 -0.8,0.5 -1.2,0.5 -0.1,0 -0.4,0 -0.8,-0.1 -0.6,-0.2 -0.9,-0.7 -1.1,-1.2 l -1.4,-3 c -0.3,-0.6 -0.5,-1.2 -0.7,-1.8 -0.1,-0.3 -0.2,-0.6 -0.3,-0.9 0,0.9 0,1.8 0,2.8 v 3.1 z"
   id="path5" />&#10;	<path
   class="st2"
   d="m 116.9,164 c 1,0.3 1.4,0.6 1.9,0.9 0.8,0.7 0.9,1.6 0.9,2 0,0.3 0,0.9 -0.4,1.5 -0.5,0.8 -1.4,1.6 -3.4,1.6 -0.6,0 -2.1,0 -3.4,-1.2 -0.6,-0.5 -0.8,-0.9 -0.8,-1.3 0,-0.5 0.5,-1 1,-1 0.4,0 0.6,0.2 0.8,0.5 0.1,0.1 0.2,0.3 0.5,0.5 0.3,0.2 0.9,0.7 1.9,0.7 1.1,0 1.5,-0.6 1.5,-1.1 0,-0.2 -0.1,-0.4 -0.2,-0.5 -0.2,-0.3 -0.6,-0.4 -1.3,-0.7 l -1.4,-0.4 c -0.2,-0.1 -0.5,-0.2 -0.7,-0.3 -0.5,-0.2 -2,-0.8 -2,-2.6 0,-0.2 0,-0.8 0.3,-1.3 0.4,-0.7 1.4,-1.7 3.4,-1.7 1.6,0 2.7,0.6 3.1,1 0,0 0.6,0.5 0.6,1 0,0.1 0,0.4 -0.2,0.6 -0.1,0.1 -0.3,0.4 -0.8,0.4 -0.1,0 -0.2,0 -0.4,-0.1 -0.3,-0.1 -0.4,-0.3 -0.8,-0.6 -0.7,-0.5 -1.2,-0.5 -1.6,-0.5 -0.9,0 -1.3,0.5 -1.3,1 0,0.2 0.1,0.5 0.5,0.7 0.2,0.1 0.6,0.3 1.1,0.4 z"
   id="path6" />&#10;	<path
   class="st2"
   d="m 135.2,169 c 0,0.4 -0.1,1.1 -1.1,1.1 -0.8,0 -1,-0.5 -1.1,-0.8 0,-0.1 0,-0.5 0,-0.9 v -7 c 0,-0.4 0,-1.1 0.3,-1.4 0.1,-0.1 0.4,-0.3 0.8,-0.3 0.3,0 0.6,0.1 0.7,0.2 0.4,0.3 0.4,1 0.4,1.5 z"
   id="path7" />&#10;	<path
   class="st2"
   d="m 153.9,166 c -0.7,0 -1.4,0.1 -1.4,-0.9 0,-1 0.7,-0.9 1.4,-0.9 h 2.1 c 0.5,0 0.8,0 0.9,0.2 0.3,0.2 0.2,0.7 0.2,1 v 1.3 c 0,0.5 0,1 -0.2,1.5 -0.4,1.1 -1.4,2 -3.8,2 -0.5,0 -2.2,0 -3.3,-1.2 -0.5,-0.5 -0.6,-1 -0.7,-1.3 -0.2,-0.6 -0.3,-1.2 -0.3,-2.5 0,-0.2 0,-1.2 0.1,-2 0.1,-0.5 0.4,-2 1.9,-2.8 1,-0.5 2,-0.5 2.4,-0.5 1.7,0 2.7,0.7 3.1,1.2 0.3,0.3 0.5,0.8 0.5,1.2 0,0.1 0,0.2 -0.1,0.4 -0.1,0.1 -0.4,0.5 -1,0.5 -0.2,0 -0.3,0 -0.4,-0.1 -0.3,-0.2 -0.6,-0.6 -0.9,-0.9 -0.2,-0.2 -0.7,-0.5 -1.4,-0.5 -0.7,0 -1,0.2 -1.3,0.4 -0.6,0.5 -0.8,1.3 -0.8,2.1 0,0.3 0,0.6 0,0.9 0,0 0,1.3 0.3,2 0.5,1.1 1.6,1.1 2,1.1 0.1,0 0.9,0 1.3,-0.4 0.5,-0.4 0.5,-1.1 0.5,-1.3 V 166 Z"
   id="path8" />&#10;	<path
   class="st2"
   d="m 173,168.4 c 0,0.8 0,1.7 -1.1,1.7 -0.3,0 -0.7,-0.1 -0.9,-0.3 -0.2,-0.3 -0.2,-0.6 -0.2,-1.3 v -7.6 c 0,-0.4 0.1,-1.1 1.1,-1.1 0.2,0 0.7,0 0.9,0.5 0.1,0.2 0.1,0.6 0.1,1.1 v 2.5 h 3.4 v -2.5 c 0,-0.9 0,-1.7 1.1,-1.7 0.6,0 0.8,0.2 0.9,0.4 0.2,0.3 0.2,0.6 0.1,1.2 v 7 c 0,0.2 0,0.4 0,0.6 0,0.4 -0.1,1.1 -1.1,1.1 -0.1,0 -0.7,0 -0.9,-0.4 -0.2,-0.3 -0.2,-0.6 -0.2,-1.3 v -2.6 H 173 Z"
   id="path9" />&#10;	<path
   class="st2"
   d="m 196.7,168.4 c 0,0.9 0,1.3 -0.5,1.5 -0.1,0.1 -0.3,0.1 -0.6,0.1 -1.1,0 -1.1,-0.8 -1.1,-1.7 v -6.6 h -1.2 c -0.7,0 -1.4,0 -1.4,-0.9 0,-1 0.7,-1 1.4,-0.9 h 5 c 0.3,0 1,0 1,0.9 0,0.1 0,0.4 -0.2,0.6 -0.2,0.3 -0.6,0.3 -1.2,0.3 h -1.2 z"
   id="path10" />&#10;	<path
   class="st2"
   d="m 217.1,164 c 1,0.3 1.4,0.6 1.9,0.9 0.8,0.7 0.9,1.6 0.9,2 0,0.3 0,0.9 -0.4,1.5 -0.5,0.8 -1.4,1.6 -3.4,1.6 -0.6,0 -2.1,0 -3.4,-1.2 -0.6,-0.5 -0.8,-0.9 -0.8,-1.3 0,-0.5 0.5,-1 1,-1 0.4,0 0.6,0.2 0.8,0.5 0.1,0.1 0.2,0.3 0.5,0.5 0.3,0.2 0.9,0.7 1.9,0.7 1.1,0 1.5,-0.6 1.5,-1.1 0,-0.2 -0.1,-0.4 -0.2,-0.5 -0.2,-0.3 -0.6,-0.4 -1.3,-0.7 l -1.4,-0.4 c -0.2,-0.1 -0.5,-0.2 -0.7,-0.3 -0.5,-0.2 -2,-0.8 -2,-2.6 0,-0.2 0,-0.8 0.3,-1.3 0.4,-0.7 1.4,-1.7 3.4,-1.7 1.6,0 2.7,0.6 3.1,1 0,0 0.6,0.5 0.6,1 0,0.1 0,0.4 -0.2,0.6 -0.1,0.1 -0.3,0.4 -0.8,0.4 -0.1,0 -0.2,0 -0.4,-0.1 -0.3,-0.1 -0.4,-0.3 -0.8,-0.6 -0.7,-0.5 -1.2,-0.5 -1.6,-0.5 -0.9,0 -1.3,0.5 -1.3,1 0,0.2 0.1,0.5 0.5,0.7 0.2,0.1 0.6,0.3 1.1,0.4 z"
   id="path11" />&#10;	<path
   class="st2"
   d="m 245.9,164.1 c 0.7,0 1.4,-0.1 1.4,0.9 0,0.5 -0.2,0.7 -0.4,0.8 -0.2,0.1 -0.5,0.1 -1,0.1 h -2.3 v 2.4 c 0,0.2 0,0.3 0,0.5 0,0.4 0,1.1 -1.1,1.1 -0.1,0 -0.6,0 -0.9,-0.3 -0.2,-0.3 -0.2,-0.7 -0.2,-1.3 V 161 c 0,-0.3 0,-0.5 0,-0.6 0.1,-0.6 0.7,-0.5 1.1,-0.5 h 3.9 c 0.2,0 0.4,0 0.5,0 0.7,0 0.9,0.3 0.9,1 0,0.2 0,0.7 -0.5,0.9 -0.2,0.1 -0.5,0.1 -0.9,0.1 h -2.8 v 2.4 h 2.3 z"
   id="path12" />&#10;	<path
   class="st2"
   d="m 268.9,167.1 c -0.1,0.4 -0.4,1.6 -1.5,2.3 -0.7,0.5 -1.6,0.6 -2.4,0.6 -0.3,0 -1.2,0 -2,-0.4 -1.8,-0.9 -2.1,-2.9 -2.1,-4.6 0,-1.4 0.2,-2.9 1.1,-4 1.1,-1.3 2.7,-1.3 3.2,-1.3 0.4,0 1.5,0 2.5,0.7 0.2,0.1 0.5,0.4 0.8,0.8 0.5,0.7 0.8,1.8 0.8,3.7 -0.1,0.2 -0.1,1.3 -0.4,2.2 z m -2,-3.7 c -0.1,-0.4 -0.3,-1.8 -1.8,-1.8 -0.2,0 -0.5,0 -0.9,0.2 -1.1,0.5 -1.1,2.1 -1.1,3.3 0,0.3 0,0.7 0,1 0.1,0.5 0.2,2.1 2,2.1 0.6,0 1.1,-0.2 1.5,-0.7 0.5,-0.7 0.5,-1.8 0.5,-2.5 -0.1,-0.9 -0.2,-1.3 -0.2,-1.6 z"
   id="path13" />&#10;	<path
   class="st2"
   d="m 285,166 v 2.3 c 0,0.2 0,0.4 0,0.6 0,0.7 -0.4,1 -1.1,1 -0.2,0 -0.7,0 -1,-0.5 -0.1,-0.3 -0.1,-0.6 -0.1,-1.2 V 161 c 0,-0.5 0,-0.8 0.2,-0.9 0.2,-0.2 0.5,-0.2 0.9,-0.2 h 2.4 c 0,0 1,0 1.5,0.1 0.4,0.1 1.2,0.2 1.8,1 0.2,0.3 0.5,0.9 0.5,1.8 0,1.3 -0.6,2 -0.9,2.4 -0.3,0.3 -0.6,0.4 -0.8,0.5 l 1.3,2.3 c 0.3,0.6 0.5,0.9 0.5,1.3 0,0.1 0,0.2 -0.1,0.4 -0.1,0.2 -0.4,0.3 -0.9,0.3 -0.8,0 -1,-0.5 -1.3,-1.1 l -1.4,-2.9 z m 1.3,-1.8 c 0.5,0 1,0 1.3,-0.5 0.1,-0.1 0.2,-0.4 0.2,-0.8 0,-0.1 0,-0.5 -0.2,-0.8 -0.3,-0.5 -0.9,-0.5 -1.4,-0.5 H 285 v 2.5 h 1.3 z"
   id="path14" />&#10;	<path
   class="st2"
   d="m 315.9,168.4 c 0,0.9 0,1.3 -0.5,1.5 -0.1,0.1 -0.3,0.1 -0.6,0.1 -1.1,0 -1.1,-0.8 -1.1,-1.7 v -6.6 h -1.2 c -0.7,0 -1.4,0 -1.4,-0.9 0,-1 0.7,-1 1.4,-0.9 h 5 c 0.3,0 1,0 1,0.9 0,0.1 0,0.4 -0.2,0.6 -0.2,0.3 -0.6,0.3 -1.2,0.3 h -1.2 z"
   id="path15" />&#10;	<path
   class="st2"
   d="m 333.9,168.4 c 0,0.8 0,1.7 -1.1,1.7 -0.3,0 -0.7,-0.1 -0.9,-0.3 -0.2,-0.3 -0.2,-0.6 -0.2,-1.3 v -7.6 c 0,-0.4 0.1,-1.1 1.1,-1.1 0.2,0 0.7,0 0.9,0.5 0.1,0.2 0.1,0.6 0.1,1.1 v 2.5 h 3.4 v -2.5 c 0,-0.9 0,-1.7 1.1,-1.7 0.6,0 0.8,0.2 0.9,0.4 0.2,0.3 0.2,0.6 0.1,1.2 v 7 c 0,0.2 0,0.4 0,0.6 0,0.4 -0.1,1.1 -1.1,1.1 -0.1,0 -0.7,0 -0.9,-0.4 -0.2,-0.3 -0.2,-0.6 -0.2,-1.3 v -2.6 h -3.4 v 2.7 z"
   id="path16" />&#10;	<path
   class="st2"
   d="m 359,163.9 c 0.3,0 1,0 1,0.9 0,0.3 -0.1,0.6 -0.3,0.8 -0.2,0.1 -0.5,0.1 -1.1,0.1 h -2.9 v 2.3 h 3.5 c 0.5,0 0.7,0 0.9,0.1 0.5,0.2 0.5,0.7 0.5,0.9 0,0.3 -0.1,0.5 -0.2,0.6 -0.3,0.4 -0.9,0.3 -1.3,0.3 h -4.6 c -0.5,0 -0.8,0 -0.9,-0.3 -0.1,-0.2 -0.1,-0.4 -0.1,-0.8 V 161 c 0,-0.3 0,-0.8 0.2,-1 0.2,-0.2 0.4,-0.1 0.9,-0.1 h 4.9 c 0.6,0 0.9,0.3 0.9,0.9 0,0.1 0,0.4 -0.1,0.6 -0.3,0.4 -0.8,0.3 -1.3,0.3 h -3.3 v 2.2 z"
   id="path17" />&#10;	<path
   class="st2"
   d="m 386.5,164.1 c 0.7,0 1.4,-0.1 1.4,0.9 0,0.5 -0.2,0.7 -0.4,0.8 -0.2,0.1 -0.5,0.1 -1,0.1 h -2.3 v 2.4 c 0,0.2 0,0.3 0,0.5 0,0.4 0,1.1 -1.1,1.1 -0.1,0 -0.6,0 -0.9,-0.3 -0.2,-0.3 -0.2,-0.7 -0.2,-1.3 V 161 c 0,-0.3 0,-0.5 0,-0.6 0.1,-0.6 0.7,-0.5 1.1,-0.5 h 3.9 c 0.2,0 0.4,0 0.5,0 0.7,0 0.9,0.3 0.9,1 0,0.2 0,0.7 -0.5,0.9 -0.2,0.1 -0.5,0.1 -1,0.1 h -2.8 v 2.4 h 2.4 z"
   id="path18" />&#10;	<path
   class="st2"
   d="m 409.3,166.6 c 0,0.2 0,0.4 0,0.6 0,0.5 -0.2,1.6 -1.4,2.3 -0.5,0.3 -1.1,0.5 -2.3,0.5 -0.3,0 -2.8,0.1 -3.5,-1.6 -0.3,-0.6 -0.3,-1.3 -0.3,-2 v -5.1 c 0,-0.2 0,-0.3 0,-0.5 0,-0.4 0,-1.1 1.1,-1.1 0.4,0 0.8,0.1 1,0.5 0.1,0.3 0.1,0.6 0.1,1.2 v 4.9 c 0,0.6 -0.1,1.9 1.7,1.9 1,0 1.4,-0.5 1.5,-0.9 0.1,-0.2 0.1,-0.5 0.1,-1 v -5.4 c 0,-0.3 0,-1.1 1,-1.1 1.1,0 1,0.8 1,1.6 z"
   id="path19" />&#10;	<path
   class="st2"
   d="m 427.3,168.4 c 0,0.9 0,1.3 -0.5,1.5 -0.1,0.1 -0.3,0.1 -0.6,0.1 -1.1,0 -1.1,-0.8 -1.1,-1.7 v -6.6 h -1.2 c -0.7,0 -1.4,0 -1.4,-0.9 0,-1 0.7,-1 1.4,-0.9 h 5 c 0.3,0 1,0 1,0.9 0,0.1 0,0.4 -0.2,0.6 -0.2,0.3 -0.6,0.3 -1.2,0.3 h -1.2 z"
   id="path20" />&#10;	<path
   class="st2"
   d="m 450.7,166.6 c 0,0.2 0,0.4 0,0.6 0,0.5 -0.2,1.6 -1.4,2.3 -0.5,0.3 -1.1,0.5 -2.3,0.5 -0.3,0 -2.8,0.1 -3.5,-1.6 -0.3,-0.6 -0.3,-1.3 -0.3,-2 v -5.1 c 0,-0.2 0,-0.3 0,-0.5 0,-0.4 0,-1.1 1.1,-1.1 0.4,0 0.8,0.1 1,0.5 0.1,0.3 0.1,0.6 0.1,1.2 v 4.9 c 0,0.6 -0.1,1.9 1.7,1.9 1,0 1.4,-0.5 1.5,-0.9 0.1,-0.2 0.1,-0.5 0.1,-1 v -5.4 c 0,-0.3 0,-1.1 1,-1.1 1.1,0 1,0.8 1,1.6 z"
   id="path21" />&#10;	<path
   class="st2"
   d="m 466.8,166 v 2.3 c 0,0.2 0,0.4 0,0.6 0,0.7 -0.4,1 -1.1,1 -0.2,0 -0.7,0 -1,-0.5 -0.1,-0.3 -0.1,-0.6 -0.1,-1.2 V 161 c 0,-0.5 0,-0.8 0.2,-0.9 0.2,-0.2 0.5,-0.2 0.9,-0.2 h 2.4 c 0,0 1,0 1.5,0.1 0.4,0.1 1.2,0.2 1.8,1 0.2,0.3 0.5,0.9 0.5,1.8 0,1.3 -0.6,2 -0.9,2.4 -0.3,0.3 -0.6,0.4 -0.8,0.5 l 1.3,2.3 c 0.3,0.6 0.5,0.9 0.5,1.3 0,0.1 0,0.2 -0.1,0.4 -0.1,0.2 -0.4,0.3 -0.9,0.3 -0.8,0 -1,-0.5 -1.3,-1.1 l -1.4,-2.9 z m 1.3,-1.8 c 0.5,0 1,0 1.3,-0.5 0.1,-0.1 0.2,-0.4 0.2,-0.8 0,-0.1 0,-0.5 -0.2,-0.8 -0.3,-0.5 -0.9,-0.5 -1.4,-0.5 h -1.2 v 2.5 h 1.3 z"
   id="path22" />&#10;	<path
   class="st2"
   d="m 490.9,163.9 c 0.3,0 1,0 1,0.9 0,0.3 -0.1,0.6 -0.3,0.8 -0.2,0.1 -0.5,0.1 -1.1,0.1 h -2.9 v 2.3 h 3.5 c 0.5,0 0.7,0 0.9,0.1 0.5,0.2 0.5,0.7 0.5,0.9 0,0.3 -0.1,0.5 -0.2,0.6 -0.3,0.4 -0.9,0.3 -1.3,0.3 h -4.6 c -0.5,0 -0.8,0 -0.9,-0.3 -0.1,-0.2 -0.1,-0.4 -0.1,-0.8 V 161 c 0,-0.3 0,-0.8 0.2,-1 0.2,-0.2 0.4,-0.1 0.9,-0.1 h 4.9 c 0.6,0 0.9,0.3 0.9,0.9 0,0.1 0,0.4 -0.1,0.6 -0.3,0.4 -0.8,0.3 -1.3,0.3 h -3.3 v 2.2 z"
   id="path23" />&#10;</g></g>&#10;</svg>
